<svg width="18" height="18" viewBox="0 0 18 18" fill="none" xmlns="http://www.w3.org/2000/svg">
<path fill-rule="evenodd" clip-rule="evenodd" d="M5.05312 0.885799C5.98737 0.49882 6.98869 0.299644 7.99992 0.299644C9.01114 0.299644 10.0125 0.49882 10.9467 0.885799C11.881 1.27278 12.7298 1.83998 13.4449 2.55503C14.1599 3.27007 14.7271 4.11895 15.1141 5.0532C15.5011 5.98745 15.7003 6.98878 15.7003 8C15.7003 9.01123 15.5011 10.0125 15.1141 10.9468C14.8167 11.6648 14.4129 12.3323 13.9173 12.9275L17.4949 16.505C17.7683 16.7784 17.7683 17.2216 17.4949 17.495C17.2215 17.7683 16.7783 17.7683 16.5049 17.495L12.9274 13.9174C11.5496 15.0648 9.80752 15.7004 7.99992 15.7004C5.95766 15.7004 3.99904 14.8891 2.55494 13.445C1.11085 12.0009 0.299561 10.0423 0.299561 8C0.299561 5.95774 1.11085 3.99912 2.55494 2.55503C3.26999 1.83998 4.11887 1.27278 5.05312 0.885799ZM12.4549 12.455C13.04 11.87 13.5041 11.1754 13.8207 10.411C14.1373 9.64665 14.3003 8.82738 14.3003 8C14.3003 7.17263 14.1373 6.35335 13.8207 5.58896C13.5041 4.82456 13.04 4.13002 12.4549 3.54498C11.8699 2.95993 11.1754 2.49585 10.411 2.17923C9.64656 1.86261 8.82729 1.69964 7.99992 1.69964C7.17254 1.69964 6.35327 1.86261 5.58888 2.17923C4.82448 2.49585 4.12994 2.95993 3.54489 3.54498C2.36335 4.72652 1.69956 6.32904 1.69956 8C1.69956 9.67096 2.36335 11.2735 3.54489 12.455C4.72644 13.6366 6.32896 14.3004 7.99992 14.3004C9.67088 14.3004 11.2734 13.6366 12.4549 12.455Z" fill="#414249"/>
</svg>
