<svg width="24" height="24" viewBox="0 0 24 24" fill="none" xmlns="http://www.w3.org/2000/svg">
<path fill-rule="evenodd" clip-rule="evenodd" d="M12 3.7C9.62522 3.7 7.70005 5.62518 7.70005 8C7.70005 10.3748 9.62522 12.3 12 12.3C14.3749 12.3 16.3 10.3748 16.3 8C16.3 5.62518 14.3749 3.7 12 3.7ZM6.30005 8C6.30005 4.85198 8.85203 2.3 12 2.3C15.1481 2.3 17.7 4.85198 17.7 8C17.7 11.148 15.1481 13.7 12 13.7C8.85203 13.7 6.30005 11.148 6.30005 8Z" fill="#414249"/>
<path fill-rule="evenodd" clip-rule="evenodd" d="M5.84822 14.8482C7.47979 13.2166 9.69267 12.3 12 12.3C14.3074 12.3 16.5203 13.2166 18.1519 14.8482C19.7834 16.4797 20.7001 18.6926 20.7001 21C20.7001 21.3866 20.3866 21.7 20 21.7C19.6135 21.7 19.3 21.3866 19.3 21C19.3 19.0639 18.5309 17.2071 17.1619 15.8381C15.7929 14.4691 13.9361 13.7 12 13.7C10.064 13.7 8.20719 14.4691 6.83817 15.8381C5.46915 17.2071 4.70005 19.0639 4.70005 21C4.70005 21.3866 4.38665 21.7 4.00005 21.7C3.61345 21.7 3.30005 21.3866 3.30005 21C3.30005 18.6926 4.21665 16.4797 5.84822 14.8482Z" fill="#414249"/>
</svg>
